<svg id="SvgjsSvg1001" width="288" height="144" xmlns="http://www.w3.org/2000/svg" version="1.1" xmlns:xlink="http://www.w3.org/1999/xlink" xmlns:svgjs="http://svgjs.com/svgjs"><defs id="SvgjsDefs1002"></defs><g id="SvgjsG1008"><svg xmlns="http://www.w3.org/2000/svg" fill-rule="evenodd" stroke-linejoin="round" stroke-miterlimit="2" clip-rule="evenodd" viewBox="0 0 77 19" width="288" height="144"><path fill="#c96a8a" fill-rule="nonzero" d="M30.73.258l0 17.7-2.141 0-8.644-12.952-.077.025 0 12.927-2.297 0 0-17.7 2.219 0 8.567 12.798.077-.026 0-12.772 2.296 0zM41.98 0c1.376 0 2.576.267 3.6.8 1.023.533 1.81 1.29 2.361 2.27.55.981.825 2.116.825 3.406l-2.528 0c0-1.324-.366-2.352-1.097-3.083-.731-.731-1.785-1.097-3.161-1.097-1.548 0-2.726.478-3.535 1.432-.808.955-1.212 2.361-1.212 4.219l0 2.322c0 1.858.4 3.264 1.199 4.219.8.955 1.983 1.432 3.548 1.432 1.497 0 2.589-.374 3.277-1.122.688-.749 1.032-1.94 1.032-3.574l0-.335-5.005 0 0-2.271 7.482 0 0 6.038c0 1.427.052 2.528.155 3.302l-1.497 0c-.223-.705-.395-1.41-.516-2.115-1.118 1.582-2.76 2.373-4.928 2.373-2.288 0-4.072-.701-5.354-2.103-1.281-1.401-1.922-3.35-1.922-5.844l0-2.322c0-2.477.641-4.421 1.922-5.831 1.282-1.411 3.066-2.116 5.354-2.116zM58.597.258l0 2.296-2.064 0 0 13.108 2.064 0 0 2.296-6.657 0 0-2.296 2.064 0 0-13.108-2.064 0 0-2.296 6.657 0zM68.866 0c1.462 0 2.744.318 3.845.955 1.101.636 1.956 1.552 2.567 2.748.611 1.195.916 2.61.916 4.244l0 2.322c0 1.634-.305 3.049-.916 4.245-.611 1.195-1.466 2.111-2.567 2.748-1.101.636-2.383.954-3.845.954-1.462 0-2.744-.318-3.844-.954-1.101-.637-1.957-1.553-2.568-2.748-.61-1.196-.916-2.611-.916-4.245l0-2.322c0-1.634.306-3.049.916-4.244.611-1.196 1.467-2.112 2.568-2.748 1.1-.637 2.382-.955 3.844-.955zm0 2.296c-1.514 0-2.692.482-3.535 1.445-.843.964-1.264 2.366-1.264 4.206l0 2.322c0 1.841.408 3.243 1.226 4.206.817.963 2.008 1.445 3.573 1.445 1.514 0 2.692-.477 3.535-1.432.843-.955 1.264-2.361 1.264-4.219l0-2.322c0-1.84-.408-3.242-1.225-4.206-.817-.963-2.009-1.445-3.574-1.445zM0 17.958l6.296-17.7 2.709 0 6.296 17.7-2.71 0-4.979-14.268-.155 0-5.006 14.268-2.451 0z" class="colorfff svgShape"></path></svg></g></svg>